<?xml version="1.0" encoding="UTF-8" standalone="no"?>
<!-- The icon can be used freely in both personal and commercial projects with no attribution required, but always appreciated. 
You may NOT sub-license, resell, rent, redistribute or otherwise transfer the icon without express written permission from iconmonstr.com -->

<svg
   xmlns:dc="http://purl.org/dc/elements/1.1/"
   xmlns:cc="http://creativecommons.org/ns#"
   xmlns:rdf="http://www.w3.org/1999/02/22-rdf-syntax-ns#"
   xmlns:svg="http://www.w3.org/2000/svg"
   xmlns="http://www.w3.org/2000/svg"
   xmlns:sodipodi="http://sodipodi.sourceforge.net/DTD/sodipodi-0.dtd"
   xmlns:inkscape="http://www.inkscape.org/namespaces/inkscape"
   version="1.1"
   x="0px"
   y="0px"
   width="512px"
   height="512px"
   viewBox="0 0 512 512"
   enable-background="new 0 0 512 512"
   xml:space="preserve"
   id="svg4136"
   inkscape:version="0.91 r13725"
   sodipodi:docname="email.svg"><metadata
     id="metadata4143"><rdf:RDF><cc:Work
         rdf:about=""><dc:format>image/svg+xml</dc:format><dc:type
           rdf:resource="http://purl.org/dc/dcmitype/StillImage" /></cc:Work></rdf:RDF></metadata><defs
     id="defs4141" /><sodipodi:namedview
     pagecolor="#ffffff"
     bordercolor="#666666"
     borderopacity="1"
     objecttolerance="10"
     gridtolerance="10"
     guidetolerance="10"
     inkscape:pageopacity="0"
     inkscape:pageshadow="2"
     inkscape:window-width="1920"
     inkscape:window-height="1017"
     id="namedview4139"
     showgrid="false"
     inkscape:zoom="1.6601562"
     inkscape:cx="256"
     inkscape:cy="195.81633"
     inkscape:window-x="1432"
     inkscape:window-y="-8"
     inkscape:window-maximized="1"
     inkscape:current-layer="svg4136" /><path
     id="email-9-icon"
     d="M 256,2.41412 C 115.94797,2.41412 2.41412,115.94797 2.41412,256 2.41412,396.05205 115.94797,509.58588 256,509.58588 396.05205,509.58588 509.58588,396.05205 509.58588,256 509.58588,115.94797 396.05205,2.41412 256,2.41412 Z m 152.58977,140.8805 -151.35261,116.07955 -151.11134,-116.07955 302.46395,0 z m -303.51154,31.79425 89.03451,68.39309 -89.03451,89.03451 0,-157.4276 z m 0.37054,193.61528 109.33859,-109.3386 42.43749,32.59687 42.36854,-32.49346 109.23642,109.23396 -303.38104,0 z m 303.93376,-36.00427 -89.09973,-89.09974 89.09973,-68.334 0,157.43374 z"
     inkscape:connector-curvature="0" /></svg>