<?xml version="1.0" encoding="UTF-8" standalone="no"?>
<svg
   xmlns:dc="http://purl.org/dc/elements/1.1/"
   xmlns:cc="http://creativecommons.org/ns#"
   xmlns:rdf="http://www.w3.org/1999/02/22-rdf-syntax-ns#"
   xmlns:svg="http://www.w3.org/2000/svg"
   xmlns="http://www.w3.org/2000/svg"
   xmlns:sodipodi="http://sodipodi.sourceforge.net/DTD/sodipodi-0.dtd"
   xmlns:inkscape="http://www.inkscape.org/namespaces/inkscape"
   height="1000"
   width="1000"
   id="svg4136"
   version="1.1"
   inkscape:version="0.91 r13725"
   sodipodi:docname="linkedin.svg">
  <metadata
     id="metadata4144">
    <rdf:RDF>
      <cc:Work
         rdf:about="">
        <dc:format>image/svg+xml</dc:format>
        <dc:type
           rdf:resource="http://purl.org/dc/dcmitype/StillImage" />
        <dc:title></dc:title>
      </cc:Work>
    </rdf:RDF>
  </metadata>
  <defs
     id="defs4142" />
  <sodipodi:namedview
     pagecolor="#ffffff"
     bordercolor="#666666"
     borderopacity="1"
     objecttolerance="10"
     gridtolerance="10"
     guidetolerance="10"
     inkscape:pageopacity="0"
     inkscape:pageshadow="2"
     inkscape:window-width="1920"
     inkscape:window-height="1017"
     id="namedview4140"
     showgrid="false"
     inkscape:zoom="0.85"
     inkscape:cx="349.95646"
     inkscape:cy="500"
     inkscape:window-x="1432"
     inkscape:window-y="-8"
     inkscape:window-maximized="1"
     inkscape:current-layer="svg4136" />
  <g
     inkscape:groupmode="layer"
     id="layer1"
     inkscape:label="Layer 1" />
  <ellipse
     style="fill:#000000;fill-opacity:1;stroke-width:40;stroke-linejoin:round;stroke-miterlimit:4;stroke-dasharray:none"
     id="path4151"
     ry="495.88235"
     rx="491.49954"
     cy="500"
     cx="500" />
  <path
     d="m 86.778118,887.87223 c -34.322667,55.144 -17.161333,27.572 0,0 z m 104.676002,-514.596 c 0,-5.20533 1.952,-9.76 5.856,-13.664 3.904,-3.904 8.45867,-5.856 13.664,-5.856 l 117.12,0 c 5.20533,0 9.76,1.952 13.664,5.856 3.904,3.904 5.856,8.45867 5.856,13.664 l 0,390.4 c 0,5.53067 -1.952,10.16667 -5.856,13.908 -3.904,3.74133 -8.45867,5.612 -13.664,5.612 l -117.12,0 c -5.20533,0 -9.76,-1.952 -13.664,-5.856 -3.904,-3.904 -5.856,-8.45867 -5.856,-13.664 z m 21.96,-192.516 c 14.64,-14.80267 32.37067,-22.204 53.192,-22.204 20.82133,0 38.63333,7.40133 53.436,22.204 14.80267,14.80267 22.204,32.61467 22.204,53.436 0,20.82133 -7.32,38.552 -21.96,53.192 -13.98933,14.96533 -31.88267,22.448 -53.68,22.448 -20.82133,0 -38.552,-7.40133 -53.192,-22.204 -14.64,-14.80267 -21.96,-32.61467 -21.96,-53.436 0,-20.82133 7.32,-38.63333 21.96,-53.436 z m 173.24,190.076 c 0,-4.88 3.00933,-8.94667 9.028,-12.2 6.01867,-3.25333 12.28133,-4.88 18.788,-4.88 l 107.36,0 c 13.98933,0 20.984,7.32 20.984,21.96 0.32533,-1.62667 3.25333,-4.06667 8.784,-7.32 27.328,-18.544 59.37333,-27.816 96.136,-27.816 53.35467,0 94.75333,13.58267 124.196,40.748 29.44267,27.16533 44.164,66.28667 44.164,117.364 l 0,264.984 c 0,5.53067 -1.952,10.16667 -5.856,13.908 -3.904,3.74133 -8.45867,5.612 -13.664,5.612 l -113.216,0 c -5.856,0 -11.224,-1.952 -16.104,-5.856 -4.88,-3.904 -7.32,-8.45867 -7.32,-13.664 l 0,-239.608 c 0,-22.12267 -3.09067,-37.41333 -9.272,-45.872 -6.18133,-8.45867 -18.86933,-12.688 -38.064,-12.688 -46.52267,0 -69.784,28.46667 -69.784,85.4 l 0,212.768 c 0,5.20533 -1.708,9.76 -5.124,13.664 -3.416,3.904 -7.40133,5.856 -11.956,5.856 l -111.264,0 c -6.18133,0 -12.36267,-1.952 -18.544,-5.856 -6.18133,-3.904 -9.272,-8.45867 -9.272,-13.664 z"
     id="path4138"
     inkscape:connector-curvature="0"
     sodipodi:nodetypes="ccssssssssssssssssscssssssssccssssssssssssssssssss"
     style="fill:#fdffff;fill-opacity:1;stroke:none;stroke-opacity:1" />
</svg>
